# xmcd CD database file
#
# Track frame offsets:
#	150
#	18923
#	44704
#	61726
#	77536
#	95929
#	112349
#	130467
#	148401
#	164524
#	181435
#	201403
#
# Disc length: 2892 seconds
#
# Revision: 0
# Processed by: cddbd v1.4PL0 Copyright (c) Steve Scherf et al.
# Submitted via: CDex 1.40Release
#
DISCID=bc0b4a0c
DTITLE=Joe Alan - Lasso The Love
DYEAR=1900
DGENRE=Country
TTITLE0=Crazy
TTITLE1=Always On My Mind
TTITLE2=Could I Have This Dance
TTITLE3=I Fall To Pieces
TTITLE4=Almost Like A Song
TTITLE5=Lady
TTITLE6=For The Good Times
TTITLE7=I Can't Make You Love Me
TTITLE8=I'll Always love You
TTITLE9=In This Life
TTITLE10=What A Difference You Made
TTITLE11=How Can I Live Without You
EXTD=ID3G: 2
EXTT0=
EXTT1=
EXTT2=
EXTT3=
EXTT4=
EXTT5=
EXTT6=
EXTT7=
EXTT8=
EXTT9=
EXTT10=
EXTT11=
PLAYORDER=
